HIERARCHY
ROOT ui
{
	 OFFSET 0 0 0
	 CHANNELS 3 XPosition YPosition Z Position
	 EndSite
	 {
	 OFFSET 0 -1 0
	 }
}
ROOT li
{
	 OFFSET 0 0 0
	 CHANNELS 3 XPosition YPosition Z Position
	 EndSite
	 {
	 OFFSET 0 -1 0
	 }
}
ROOT ul
{
	 OFFSET 0 0 0
	 CHANNELS 3 XPosition YPosition Z Position
	 EndSite
	 {
	 OFFSET 0 -1 0
	 }
}
ROOT ll
{
	 OFFSET 0 0 0
	 CHANNELS 3 XPosition YPosition Z Position
	 EndSite
	 {
	 OFFSET 0 -1 0
	 }
}
ROOT tt
{
	 OFFSET 0 0 0
	 CHANNELS 3 XPosition YPosition Z Position
	 EndSite
	 {
	 OFFSET 0 -1 0
	 }
}
ROOT tb
{
	 OFFSET 0 0 0
	 CHANNELS 3 XPosition YPosition Z Position
	 EndSite
	 {
	 OFFSET 0 -1 0
	 }
}
ROOT td
{
	 OFFSET 0 0 0
	 CHANNELS 3 XPosition YPosition Z Position
	 EndSite
	 {
	 OFFSET 0 -1 0
	 }
}
ROOT v
{
	 OFFSET 0 0 0
	 CHANNELS 3 XPosition YPosition Z Position
	 EndSite
	 {
	 OFFSET 0 -1 0
	 }
}
ROOT bn
{
	 OFFSET 0 0 0
	 CHANNELS 3 XPosition YPosition Z Position
	 EndSite
	 {
	 OFFSET 0 -1 0
	 }
}
MOTION
Frames: 30
Frame Time: 0.002
0.005875586986541748	0.003907833099365234	0		0.6197222290039063	-2.807161865234375	0		-0.8072352905273438	0.28156890869140627	0		-0.23775885009765624	-3.323947265625	0		2.147379150390625	-1.583891845703125	0		3.41804345703125	-0.5679664306640625	0		4.60202197265625	0.051158519744873045	0		5.9886474609375	0.5043673400878906	0		-0.17541781616210939	5.926107421875	0		
0.0076399359703063965	-0.003750323057174683	0		0.6153734741210938	-2.810771484375	0		-0.8793314819335938	0.2830226135253906	0		-0.3797081604003906	-3.296525146484375	0		2.1661455078125	-1.58492529296875	0		3.425174560546875	-0.5479070434570312	0		4.5962353515625	0.07433226013183594	0		5.996556640625	0.5042578735351563	0		-0.04286091613769531	5.94758935546875	0		
0.0025859949588775636	6.981149911880493E-4	0		0.6233252563476562	-2.793551025390625	0		-0.8124899291992187	0.2784898681640625	0		-0.26011679077148436	-3.302854736328125	0		2.1511640625	-1.56847265625	0		3.42502734375	-0.5477501831054687	0		4.607126953125	0.07425506591796875	0		5.98847802734375	0.5043648071289063	0		-0.1758795166015625	5.92889111328125	0		
-0.027563087463378905	-0.001481387972831726	0		0.589858154296875	-2.804727783203125	0		-0.9205541381835938	0.28149563598632815	0		-0.38918759155273436	-3.283583251953125	0		2.1539931640625	-1.565275634765625	0		3.405275390625	-0.5203079223632813	0		4.5942421875	0.08951763153076171	0		5.9884033203125	0.5043475952148437	0		-0.20868772888183593	5.922767578125	0		
0.015277948379516602	-0.004710593223571777	0		0.6215926513671876	-2.801840576171875	0		-0.868738037109375	0.27519778442382814	0		-0.3834254150390625	-3.276249267578125	0		2.15671484375	-1.5690738525390624	0		3.453021484375	-0.5278485107421875	0		4.602544921875	0.11747329711914062	0		5.99731201171875	0.5031947326660157	0		-0.1581873779296875	5.93644677734375	0		
-0.02068781852722168	0.006220632076263428	0		0.5806917724609375	-2.772881103515625	0		-0.8647760009765625	0.27960699462890626	0		-0.3447199096679687	-3.272386962890625	0		2.17089599609375	-1.541029052734375	0		3.434675537109375	-0.4724156494140625	0		4.62387451171875	0.14724139404296874	0		6.00036376953125	0.5121292724609375	0		-0.15886575317382812	5.93787939453125	0		
0.005187214851379395	0.006259134769439697	0		0.6271739501953125	-2.786193359375	0		-0.8128694458007812	0.28032345581054685	0		-0.3909104309082031	-3.260267333984375	0		2.1516796875	-1.53948583984375	0		3.4223291015625	-0.4850645751953125	0		4.614013671875	0.1644745330810547	0		5.98816162109375	0.5042958374023437	0		-0.04138386154174805	5.94958740234375	0		
-0.019057918548583984	-9.517650008201599E-4	0		0.6029217529296875	-2.780449951171875	0		-0.8890154418945313	0.2789390869140625	0		-0.2584649658203125	-3.273770263671875	0		2.17552587890625	-1.5335609130859376	0		3.432532958984375	-0.46002554321289063	0		4.6151318359375	0.18056253051757812	0		5.99606640625	0.5041840515136718	0		-0.1724296875	5.92796337890625	0		
-0.0021809229850769042	2.453790009021759E-4	0		0.630587158203125	-2.7804599609375	0		-0.8062894287109375	0.26821835327148436	0		-0.38452020263671877	-3.251434326171875	0		2.144478515625	-1.5198065185546874	0		3.42775146484375	-0.4337471923828125	0		4.6183349609375	0.20263931274414063	0		5.987966796875	0.5043294982910156	0		-0.1721486053466797	5.928423828125	0		
-0.01933222770690918	-3.7794001400470734E-5	0		0.5804126586914062	-2.769295166015625	0		-0.8692828979492188	0.27767578125	0		-0.3797928466796875	-3.2450205078125	0		2.1506083984375	-1.494583251953125	0		3.427195068359375	-0.3925093383789062	0		4.62864208984375	0.231632568359375	0		5.98786328125	0.5043811340332032	0		-0.19180288696289063	5.9341962890625	0		
0.08350536346435547	-0.002102905035018921	0		0.6370573120117188	-2.77171044921875	0		-0.7984083862304687	0.2771463928222656	0		-0.3848729553222656	-3.226445068359375	0		2.158807373046875	-1.4653714599609375	0		3.434047607421875	-0.39136376953125	0		4.62386669921875	0.2548760681152344	0		5.995759765625	0.5043424682617188	0		-0.03830869293212891	5.94939111328125	0		
-0.024523412704467774	0.006008103847503662	0		0.5999371948242187	-2.758703369140625	0		-0.8125657348632812	0.2748989562988281	0		-0.2751285400390625	-3.221585693359375	0		2.160629150390625	-1.462045654296875	0		3.452567138671875	-0.34636358642578124	0		4.6249921875	0.2710608215332031	0		5.99566015625	0.5044580993652343	0		-0.038066944122314456	5.94988525390625	0		
0.0022084789276123045	-0.00289190411567688	0		0.626596923828125	-2.761640869140625	0		-0.8936546020507813	0.2776759948730469	0		-0.404176025390625	-3.202116943359375	0		2.156867431640625	-1.4316104736328126	0		3.409709228515625	-0.3264138488769531	0		4.62433251953125	0.3013056640625	0		5.995560546875	0.5046105651855469	0		-0.05299539566040039	5.94062060546875	0		
-0.019861434936523436	0.0019600900411605835	0		0.601389404296875	-2.755778076171875	0		-0.8839249267578125	0.2680940551757813	0		-0.367490966796875	-3.20213671875	0		2.131976318359375	-1.40983447265625	0		3.41505810546875	-0.29316378784179686	0		4.6136875	0.332731201171875	0		5.99131982421875	0.4958583984375	0		-0.20408451843261718	5.9234345703125	0		
0.005995009899139404	0.0020971620082855225	0		0.5802572631835937	-2.7449599609375	0		-0.869870361328125	0.2804581604003906	0		-0.45947113037109377	-3.179187744140625	0		2.12492919921875	-1.398310546875	0		3.4201142578125	-0.27889083862304687	0		4.613005859375	0.3620301513671875	0		5.9914638671875	0.5130704956054688	0		-0.1536734619140625	5.93921435546875	0		
-0.01216864013671875	0.0019152259826660156	0		0.6011466674804687	-2.732768310546875	0		-0.870006591796875	0.2810461730957031	0		-0.4074854431152344	-3.159417236328125	0		2.127271728515625	-1.3609110107421876	0		3.420560302734375	-0.23852749633789064	0		4.61534716796875	0.39330282592773436	0		5.99133984375	0.513306640625	0		-0.16868568420410157	5.92899609375	0		
0.005683224201202392	0.003193664073944092	0		0.5998182983398438	-2.734229248046875	0		-0.8792754516601563	0.2737821350097656	0		-0.45158502197265626	-3.144170654296875	0		2.128333251953125	-1.3414810791015626	0		3.38960498046875	-0.22367137145996094	0		4.60055908203125	0.4168531494140625	0		5.9950810546875	0.5055008239746094	0		-0.16855105590820313	5.92955810546875	0		
-0.020485708236694336	0.004154859066009521	0		0.6156036987304687	-2.72794287109375	0		-0.8125037231445312	0.2693575744628906	0		-0.42474395751953126	-3.133003173828125	0		2.099360595703125	-1.323578857421875	0		3.38093017578125	-0.19013958740234374	0		4.6028681640625	0.4471574401855469	0		5.98693408203125	0.5058946533203125	0		-0.16843536376953125	5.93012841796875	0		
0.006206538200378418	-0.003691993951797485	0		0.6022810668945312	-2.72820361328125	0		-0.8846640014648437	0.2710727233886719	0		-0.4518988342285156	-3.1210009765625	0		2.106517333984375	-1.2972203369140625	0		3.38609375	-0.16680975341796875	0		4.59783154296875	0.455586181640625	0		5.994775390625	0.5060593566894531	0		-0.16834002685546876	5.93070361328125	0		
-0.024900110244750976	0.002356132984161377	0		0.5961756591796875	-2.714569091796875	0		-0.884839599609375	0.2716813049316406	0		-0.4461156311035156	-3.1135048828125	0		2.083662109375	-1.271390380859375	0		3.367643310546875	-0.11810041809082031	0		4.593236328125	0.4930273132324219	0		5.98536376953125	0.4905074157714844	0		-0.18718797302246093	5.93657373046875	0		
0.009876478195190429	3.838540017604828E-4	0		0.5911129150390625	-2.6989482421875	0		-0.8799557495117187	0.27620730590820314	0		-0.4610069885253906	-3.085689208984375	0		2.08599658203125	-1.233939453125	0		3.35051416015625	-0.11340189361572266	0		4.60240771484375	0.5152721557617187	0		5.970119140625	0.48607232666015626	0		-0.03488046646118164	5.95279248046875	0		
0.005648037910461426	-0.001989269018173218	0		0.6178048706054687	-2.700822509765625	0		-0.813198974609375	0.27176168823242186	0		-0.45621676635742187	-3.08018701171875	0		2.0511806640625	-1.20690478515625	0		3.371024658203125	-0.06826667785644532	0		4.5976005859375	0.5387559204101563	0		5.96896923828125	0.4874503173828125	0		-0.033892425537109375	5.9513427734375	0		
5.414119958877564E-4	0.002645068883895874	0		0.5926432495117188	-2.694893798828125	0		-0.8133610229492187	0.27234088134765627	0		-0.4391292724609375	-3.057884765625	0		2.035447265625	-1.1761578369140624	0		3.324061279296875	-0.05407101058959961	0		4.5957880859375	0.5612172241210938	0		5.96370458984375	0.4809246826171875	0		-0.05003893280029297	5.94315087890625	0		
-0.0017799400091171264	-0.007776073932647705	0		0.6204203491210938	-2.695795166015625	0		-0.8175676879882813	0.26896621704101564	0		-0.4682122497558594	-3.04887890625	0		2.0337567138671875	-1.14462451171875	0		3.316409423828125	-0.021470029830932616	0		4.573103515625	0.5910269165039063	0		5.95458056640625	0.48249246215820313	0		-0.1824288330078125	5.9217578125	0		
0.009248984336853028	0.002583846092224121	0		0.5744841918945313	-2.680554931640625	0		-0.8856192016601563	0.2745690002441406	0		-0.45820648193359376	-3.03749755859375	0		2.0221480712890627	-1.1099349365234374	0		3.32934423828125	-0.01718296813964844	0		4.58420263671875	0.605327880859375	0		5.96560009765625	0.49177639770507814	0		-0.19942987060546874	5.92555712890625	0		
0.00915310573577881	0.0031000900268554686	0		0.59657373046875	-2.667386474609375	0		-0.8757147827148437	0.27493417358398436	0		-0.5048141784667969	-3.00424951171875	0		2.013639892578125	-1.0712940673828124	0		3.302203125	0.044744388580322265	0		4.5806875	0.6428770141601563	0		5.96064794921875	0.5013369140625	0		-0.16640374755859375	5.93155908203125	0		
0.005044075965881347	6.60260021686554E-4	0		0.560709228515625	-2.65432763671875	0		-0.8137857666015625	0.2744625549316406	0		-0.44681402587890623	-3.000658203125	0		1.9911129150390625	-1.03643701171875	0		3.282251953125	0.05256113052368164	0		4.57773291015625	0.6504318237304687	0		5.94747607421875	0.4950528869628906	0		-0.034123180389404296	5.9539951171875	0		
0.005016211986541748	0.0011358790397644042	0		0.5876614379882813	-2.65726611328125	0		-0.889854248046875	0.27311355590820313	0		-0.5214715576171876	-2.978021728515625	0		1.9796124267578126	-1.002755859375	0		3.27472314453125	0.08519467926025391	0		4.5630419921875	0.6731903686523437	0		5.94744287109375	0.4955958557128906	0		-0.04937253952026367	5.944705078125	0		
-0.0020846641063690186	-0.005303756237030029	0		0.5549762573242187	-2.6402919921875	0		-0.8178768920898437	0.27142538452148435	0		-0.4942663269042969	-2.969003173828125	0		1.9732325439453124	-0.964160400390625	0		3.27994580078125	0.0996329345703125	0		4.56303564453125	0.673734619140625	0		5.94258056640625	0.5052452697753906	0		-0.034349205017089844	5.953919921875	0		
0.002003335952758789	-0.0019439890384674071	0		0.5960130615234375	-2.645489501953125	0		-0.879835693359375	0.2727866821289063	0		-0.521978515625	-2.95816162109375	0		1.9380369873046874	-0.91612646484375	0		3.263685791015625	0.14541041564941407	0		4.5404951171875	0.7026450805664063	0		5.942607421875	0.5058424682617187	0		-0.16682402038574218	5.93339453125	0		
